<svg id="Layer_1" data-name="Layer 1" xmlns="http://www.w3.org/2000/svg" viewBox="0 0 273.8 273.8"><defs><style>.cls-1{fill:#38bcdb;}.cls-2{font-size:100.94px;}.cls-2,.cls-3,.cls-4{fill:#60bad7;}.cls-2,.cls-3{font-family:FontAwesome;}.cls-3{font-size:100.5px;}</style></defs><title>data_coding</title><path class="cls-1" d="M225.6,46.6A126.82,126.82,0,0,0,46.3,226,126.82,126.82,0,1,0,225.6,46.6ZM215.3,215.8a112.26,112.26,0,0,1-159,0,110.72,110.72,0,0,1-11.4-13.4l1.23-1.27c-1.69-2.14-3.18-4.46-4.59-6.61a39,39,0,0,1-3.36-5.74L37.1,189.9a112.4,112.4,0,1,1,209.7-72.2l-.3.29a5.6,5.6,0,0,1,.43,3.16,33.53,33.53,0,0,1,.64,8.37c.16,1.6.31,3.23.54,4.9a7.62,7.62,0,0,1,0,2.08l.1-.1A111.16,111.16,0,0,1,215.3,215.8Z"/><path class="cls-1" d="M136.9,0A136.9,136.9,0,1,0,273.8,136.9,136.91,136.91,0,0,0,136.9,0Zm0,248.2a111.3,111.3,0,0,1-91.55-48.09c-1.37-1.85-2.62-3.78-3.81-5.59-1.31-2-3.25-4.81-4-7.6a111.29,111.29,0,1,1,209.15-68.58,5.66,5.66,0,0,1,.34,2.16,112.36,112.36,0,0,1,1.21,16.4C248.1,198.2,198.2,248.2,136.9,248.2Z"/><text class="cls-2" transform="translate(34.04 177.11)"></text><text class="cls-3" transform="translate(238.42 97.91) rotate(180)"></text><polygon class="cls-4" points="133.43 182.23 112.23 182.5 140.65 92.55 161.85 92.1 133.43 182.23"/></svg>