<?xml version="1.0" encoding="utf-8"?>
<!-- Generator: Adobe Illustrator 23.0.3, SVG Export Plug-In . SVG Version: 6.00 Build 0)  -->
<svg version="1.1" id="Capa_1" xmlns="http://www.w3.org/2000/svg" xmlns:xlink="http://www.w3.org/1999/xlink" x="0px" y="0px"
	 viewBox="0 0 275 206.3" style="enable-background:new 0 0 275 206.3;" xml:space="preserve">
<style type="text/css">
	.st0{fill:#38BCDB;}
</style>
<g>
	<path class="st0" d="M257.3,0H18.6C8.5,0,0,8.2,0,18.3v169.9c0,10.1,8.4,18,18.6,18h238.6c10.1,0,17.7-7.9,17.7-18V18.3
		C275,8,267.4,0,257.3,0z M62.7,10.4c3.8,0,6.7,3,6.7,6.7s-3,6.7-6.7,6.7c-3.6,0-6.7-3-6.7-6.7S59.1,10.4,62.7,10.4z M43.4,10.4
		c3.8,0,6.7,3,6.7,6.7s-3,6.7-6.7,6.7c-3.6,0-6.7-3-6.7-6.7S39.8,10.4,43.4,10.4z M24.2,10.4c3.8,0,6.7,3,6.7,6.7s-3,6.7-6.7,6.7
		s-6.7-3-6.7-6.7S20.5,10.4,24.2,10.4z M258.3,189.1c0,0.3,0.1,0.5-0.2,0.5h-0.5H17.5h-0.8v-0.5V35.4v-0.5c0-0.3,0.6-0.5,0.8-0.5
		h240.6c0.3,0,0.2,0.2,0.2,0.5V189.1L258.3,189.1z M252,24h-72.9c-3.8,0-6.7-3-6.7-6.8s3-6.8,6.7-6.8H252c3.8,0,6.7,3,6.7,6.8
		C258.6,20.9,255.6,24,252,24z"/>
	<g>
		<path class="st0" d="M45.4,77.1h70c3.6,0,6.4-2.9,6.4-6.5s-2.9-6.5-6.4-6.5h-70c-3.6,0-6.4,2.9-6.4,6.5
			C38.9,74.2,41.8,77.1,45.4,77.1z"/>
		<path class="st0" d="M115.4,86.1h-70c-3.6,0-6.4,2.9-6.4,6.5s2.9,6.5,6.4,6.5h70c3.6,0,6.4-2.9,6.4-6.5S118.9,86.1,115.4,86.1z"/>
		<path class="st0" d="M115.4,108.1h-70c-3.6,0-6.4,2.9-6.4,6.5s2.9,6.5,6.4,6.5h70c3.6,0,6.4-2.9,6.4-6.5S118.9,108.1,115.4,108.1z
			"/>
		<path class="st0" d="M115.4,130.1h-70c-3.6,0-6.4,2.9-6.4,6.5s2.9,6.5,6.4,6.5h70c3.6,0,6.4-2.9,6.4-6.5S118.9,130.1,115.4,130.1z
			"/>
	</g>
	<path class="st0" d="M224.3,62.1h-74c-6.9,0-12.8,5.6-12.8,12.5v0.5v73.5v0.5c0,6.6,5.7,12,12.3,12h0.5h73.5h0.5
		c6.9,0,12.2-5.6,12.2-12.5v-74C236.5,67.7,231.2,62.1,224.3,62.1z"/>
</g>
</svg>
