<?xml version="1.0" encoding="utf-8"?>
<!-- Generator: Adobe Illustrator 23.0.3, SVG Export Plug-In . SVG Version: 6.00 Build 0)  -->
<svg version="1.1" id="Layer_1" xmlns="http://www.w3.org/2000/svg" xmlns:xlink="http://www.w3.org/1999/xlink" x="0px" y="0px"
	 viewBox="0 0 699.8 224" style="enable-background:new 0 0 699.8 224;" xml:space="preserve">
<style type="text/css">
	.st0{fill:#38BCDB;}
	.st1{fill:#2E91A3;}
	.st2{fill:#6CCCE6;}
	.st3{fill:#FFFFFF;}
	.st4{fill:#231F20;}
</style>
<polygon class="st0" points="269.8,5.2 146.4,218.9 23.1,5.2 "/>
<polygon class="st1" points="287.7,90.1 146.4,218.9 146.4,5.2 "/>
<polygon class="st2" points="4.4,90.1 146.7,5.2 146.7,218.9 "/>
<g>
	<path class="st3" d="M198.9,81.9h-37v76.3h-30.3V81.9h-37V57.4h104.3V81.9z"/>
</g>
<g>
	<path class="st4" d="M328,70.4h-21.3V60.3h54.3v10.1h-21.3v54.7H328V70.4z"/>
	<path class="st4" d="M369.6,60.3h20.9c7,0,10.2,0.5,13.1,1.8c6.5,2.9,10.6,9.1,10.6,17.7c0,7.8-4.1,15-11,17.7v0.2
		c0,0,0.9,0.9,2.2,3.2l13.3,24.2h-13.1l-12.9-24.2h-11.3v24.2h-11.8V60.3z M392,90.7c6.3,0,10.2-3.7,10.2-10.2c0-6.2-2.6-10-11.9-10
		h-8.9v20.3H392z"/>
	<path class="st4" d="M429.7,60.3h11.8v64.8h-11.8V60.3z"/>
	<path class="st4" d="M457.9,60.3h11.8V115h28v10.1h-39.8V60.3z"/>
	<path class="st4" d="M535,59.2c19.1,0,33.5,14.5,33.5,33c0,19.1-14.4,34-33.5,34c-19.1,0-33.5-14.9-33.5-34
		C501.5,73.7,515.9,59.2,535,59.2z M535,115.4c11.9,0,21.4-9.9,21.4-23.2c0-12.8-9.5-22.3-21.4-22.3c-11.9,0-21.4,9.5-21.4,22.3
		C513.7,105.6,523.1,115.4,535,115.4z"/>
	<path class="st4" d="M609.5,59.2c15.9,0,24.1,8.2,24.1,8.2l-5.8,8.8c0,0-6.9-6.2-17.2-6.2c-14.5,0-22.3,10-22.3,22.3
		c0,14.1,9.6,23.2,21.7,23.2c9.8,0,16.2-6.8,16.2-6.8v-7.6h-9.9V91h20.5v34.1h-10V122c0-1.4,0.1-2.7,0.1-2.7h-0.2
		c0,0-6.8,6.9-18.8,6.9c-17.1,0-31.8-13.2-31.8-33.6C576.1,73.8,590.2,59.2,609.5,59.2z"/>
	<path class="st4" d="M663.1,98l-21.5-37.7h13.3L665,79.4c2.1,4,3.8,8.8,3.9,8.7h0.2c0,0,1.8-4.7,3.9-8.7l10-19.1h13.3L674.8,98
		v27.1h-11.8V98z"/>
</g>
<g>
	<path class="st4" d="M315.5,138.7h15.1v3.9h-10.5v6.6h8.5v3.9h-8.5v6.8h11.1v3.9h-15.6V138.7z"/>
	<path class="st4" d="M335.9,138.7h8.6c7.8,0,12.8,4.6,12.8,12.6c0,7.9-5.1,12.6-12.8,12.6h-8.6V138.7z M344.2,159.9
		c5.1,0,8.4-3,8.4-8.7c0-5.6-3.3-8.6-8.4-8.6h-3.8v17.3H344.2z"/>
	<path class="st4" d="M361.7,138.7h4.6v16.1c0,3.4,2.2,5.3,5.6,5.3s5.6-1.9,5.6-5.3v-16.1h4.6v16.1c0,5.6-4.1,9.5-10.1,9.5
		c-6.1,0-10.2-3.8-10.2-9.5V138.7z"/>
	<path class="st4" d="M399.3,138.2c6.1,0,9.3,3.4,9.3,3.4l-2.2,3.4c0,0-2.9-2.7-6.9-2.7c-5.3,0-8.4,4-8.4,8.7c0,4.8,3.2,9,8.5,9
		c4.4,0,7.3-3.2,7.3-3.2l2.4,3.3c0,0-3.5,4.1-9.9,4.1c-7.7,0-13-5.7-13-13.1C386.3,143.8,391.9,138.2,399.3,138.2z"/>
	<path class="st4" d="M426,157.4h-8.8l-2.1,6.5h-4.7l8.9-25.2h4.8l8.9,25.2h-4.7L426,157.4z M421.6,143c0,0-0.6,2.5-1.1,3.9
		l-2.2,6.7h6.6l-2.2-6.7C422.2,145.5,421.6,143,421.6,143L421.6,143z"/>
	<path class="st4" d="M439.8,142.6h-8.3v-3.9h21.1v3.9h-8.3v21.2h-4.6V142.6z"/>
	<path class="st4" d="M456,138.7h4.6v25.2H456V138.7z"/>
	<path class="st4" d="M478.2,138.2c7.4,0,13,5.6,13,12.8c0,7.4-5.6,13.2-13,13.2c-7.4,0-13-5.8-13-13.2
		C465.2,143.9,470.8,138.2,478.2,138.2z M478.2,160.1c4.6,0,8.3-3.8,8.3-9c0-5-3.7-8.7-8.3-8.7s-8.3,3.7-8.3,8.7
		C469.9,156.2,473.6,160.1,478.2,160.1z"/>
	<path class="st4" d="M495.9,138.7h4.6l9.5,14.5c1,1.5,2.1,3.9,2.1,3.9h0.1c0,0-0.2-2.4-0.2-3.9v-14.5h4.5v25.2h-4.5l-9.5-14.5
		c-1-1.5-2.1-3.9-2.1-3.9h-0.1c0,0,0.2,2.4,0.2,3.9v14.5h-4.6V138.7z"/>
	<path class="st4" d="M532,157.4c0,0,2.7,2.7,6.3,2.7c1.9,0,3.7-1,3.7-3c0-4.5-11.9-3.7-11.9-11.5c0-4.2,3.6-7.3,8.4-7.3
		c5,0,7.5,2.7,7.5,2.7l-2,3.7c0,0-2.4-2.2-5.6-2.2c-2.1,0-3.8,1.2-3.8,3c0,4.5,11.8,3.4,11.8,11.4c0,4-3,7.4-8.3,7.4
		c-5.6,0-8.7-3.4-8.7-3.4L532,157.4z"/>
	<path class="st4" d="M551.1,138.7h15.1v3.9h-10.5v6.6h8.5v3.9h-8.5v6.8h11.1v3.9h-15.6V138.7z"/>
	<path class="st4" d="M571.5,138.7h8.1c2.7,0,4,0.2,5.1,0.7c2.5,1.1,4.1,3.5,4.1,6.9c0,3-1.6,5.8-4.3,6.9v0.1c0,0,0.4,0.4,0.9,1.2
		l5.2,9.4h-5.1l-5-9.4H576v9.4h-4.6V138.7z M580.2,150.5c2.4,0,4-1.5,4-4c0-2.4-1-3.9-4.6-3.9H576v7.9H580.2z"/>
	<path class="st4" d="M591.4,138.7h4.9l5.5,16.4c0.5,1.5,0.9,3.7,1,3.7h0.1c0,0,0.5-2.2,1-3.7l5.6-16.4h4.9l-9.2,25.2h-4.5
		L591.4,138.7z"/>
	<path class="st4" d="M617.5,138.7h4.6v25.2h-4.6V138.7z"/>
	<path class="st4" d="M639.6,138.2c6.1,0,9.3,3.4,9.3,3.4l-2.2,3.4c0,0-2.9-2.7-6.9-2.7c-5.3,0-8.4,4-8.4,8.7c0,4.8,3.2,9,8.5,9
		c4.4,0,7.3-3.2,7.3-3.2l2.4,3.3c0,0-3.5,4.1-9.9,4.1c-7.7,0-13-5.7-13-13.1C626.7,143.8,632.2,138.2,639.6,138.2z"/>
	<path class="st4" d="M653.8,138.7h15.1v3.9h-10.5v6.6h8.5v3.9h-8.5v6.8h11.1v3.9h-15.6V138.7z"/>
	<path class="st4" d="M674.7,157.4c0,0,2.7,2.7,6.3,2.7c1.9,0,3.7-1,3.7-3c0-4.5-11.9-3.7-11.9-11.5c0-4.2,3.6-7.3,8.4-7.3
		c5,0,7.5,2.7,7.5,2.7l-2,3.7c0,0-2.4-2.2-5.6-2.2c-2.1,0-3.8,1.2-3.8,3c0,4.5,11.8,3.4,11.8,11.4c0,4-3,7.4-8.3,7.4
		c-5.6,0-8.7-3.4-8.7-3.4L674.7,157.4z"/>
</g>
</svg>
