<?xml version="1.0" encoding="utf-8"?>
<!-- Generator: Adobe Illustrator 23.0.3, SVG Export Plug-In . SVG Version: 6.00 Build 0)  -->
<svg version="1.1" id="Capa_1" xmlns="http://www.w3.org/2000/svg" xmlns:xlink="http://www.w3.org/1999/xlink" x="0px" y="0px"
	 viewBox="0 0 275 226.7" style="enable-background:new 0 0 275 226.7;" xml:space="preserve">
<style type="text/css">
	.st0{fill:#38BCDB;}
</style>
<path class="st0" d="M248.1,44h-68.3V10.7C179.8,4.8,175,0,169.1,0h-63.2C100,0,95.2,4.8,95.2,10.7V44H26.9C12,44,0,56.1,0,70.9
	v128.9c0,14.8,12,26.9,26.9,26.9h221.3c14.8,0,26.9-12,26.9-26.9V70.9C275,56.1,263,44,248.1,44z M116.7,21.5h41.6V44h-41.6
	L116.7,21.5L116.7,21.5z M26.9,65.5c1.2,0,218.3,0,221.3,0c3,0,5.4,2.4,5.4,5.4v53.7h-84.4c-5.9,0-10.7,4.8-10.7,10.7v11.3h-41.6
	v-11.3c0-5.9-4.8-10.7-10.7-10.7H21.5V70.9C21.5,67.9,23.9,65.5,26.9,65.5z M248.1,205.2H26.9c-3,0-5.4-2.4-5.4-5.4v-53.7h73.7v11.3
	c0,5.9,4.8,10.7,10.7,10.7H169c5.9,0,10.7-4.8,10.7-10.7v-11.3h73.7v53.7C253.5,202.8,251.1,205.2,248.1,205.2z"/>
</svg>
