<?xml version="1.0" encoding="utf-8"?>
<!-- Generator: Adobe Illustrator 23.0.3, SVG Export Plug-In . SVG Version: 6.00 Build 0)  -->
<svg version="1.1" id="Layer_1" xmlns="http://www.w3.org/2000/svg" xmlns:xlink="http://www.w3.org/1999/xlink" x="0px" y="0px"
	 viewBox="0 0 275 273.8" style="enable-background:new 0 0 275 273.8;" xml:space="preserve">
<style type="text/css">
	.st0{fill:#38BCDB;}
</style>
<g>
	<g>
		<g>
			<path class="st0" d="M225.6,46.6c-24-24-55.8-37.2-89.7-37.2S70.2,22.7,46.3,46.6C-3.2,96.1-3.2,176.5,46.3,226
				c24,24,55.8,37.2,89.7,37.2s65.7-13.2,89.7-37.2s37.2-55.8,37.2-89.7S249.5,70.6,225.6,46.6z M56.4,56.9
				c21.2-21.2,49.5-33,79.5-33s58.3,11.7,79.5,33c16.7,16.7,27.6,37.8,31.4,60.8l-39.4,38.5c-3.7-2.2-8-3.3-12.6-3.3
				c-8.9,0-16.8,4.6-21.4,11.4l-57.9-18.2c0-0.2,0-0.3,0-0.5c0-14.2-11.5-25.7-25.7-25.7S64,131.5,64,145.7c0,4.6,1.3,9,3.4,12.7
				l-30.3,31.5C14,147.3,20.4,92.9,56.4,56.9z M206,178.6c0,6.3-5.1,11.3-11.2,11.3c-6.3,0-11.3-5.1-11.3-11.3s5.1-11.3,11.3-11.3
				C200.9,167.3,206,172.4,206,178.6z M101.1,145.7c0,6.3-5.1,11.3-11.3,11.3s-11.3-5.1-11.3-11.3c0-6.3,5.1-11.3,11.3-11.3
				C96,134.4,101.1,139.4,101.1,145.7z M215.3,215.8c-21.2,21.2-49.5,33-79.5,33s-58.3-11.7-79.5-33c-4.2-4.2-8-8.7-11.4-13.4
				l32.9-34c3.6,1.9,7.6,2.9,11.9,2.9c8.9,0,16.8-4.6,21.4-11.4l57.9,18.2c0,0.2,0,0.3,0,0.5c0,14.2,11.5,25.7,25.7,25.7
				c14.2,0,25.7-11.5,25.7-25.7c0-4.4-1.1-8.5-3-12.1l30.8-30.1C248.3,166.4,236.5,194.6,215.3,215.8z"/>
		</g>
	</g>
	<path class="st0" d="M136.9,0C61.3,0,0,61.3,0,136.9s61.3,136.9,136.9,136.9s136.9-61.3,136.9-136.9S212.5,0,136.9,0z M136.9,248.2
		c-61.3,0-111.3-49.9-111.3-111.3c0-61.3,49.9-111.3,111.3-111.3s111.3,49.9,111.3,111.3C248.1,198.2,198.2,248.2,136.9,248.2z"/>
</g>
</svg>
