<svg id="Layer_1" data-name="Layer 1" xmlns="http://www.w3.org/2000/svg" viewBox="0 0 273.8 273.8"><defs><style>.cls-1{fill:#38bcdb;}.cls-2{isolation:isolate;}.cls-3{fill:#60bad7;}</style></defs><title>coding</title><path class="cls-1" d="M225.6,46.6A126.82,126.82,0,0,0,46.3,226,126.82,126.82,0,1,0,225.6,46.6ZM215.3,215.8a112.26,112.26,0,0,1-159,0,110.72,110.72,0,0,1-11.4-13.4l1.2-1.3c-1.7-2.1-3.2-4.5-4.6-6.6a47.67,47.67,0,0,1-3.4-5.7L37,189.9a112.4,112.4,0,1,1,209.7-72.2l-.3.3a5.82,5.82,0,0,1,.4,3.2,33,33,0,0,1,.6,8.4c.2,1.6.3,3.2.5,4.9a7.39,7.39,0,0,1,0,2.1l.1-.1A110.1,110.1,0,0,1,215.3,215.8Z"/><path class="cls-1" d="M136.9,0A136.9,136.9,0,1,0,273.8,136.9,136.91,136.91,0,0,0,136.9,0Zm0,248.2a111.25,111.25,0,0,1-91.5-48.1c-1.4-1.8-2.6-3.8-3.8-5.6a30.27,30.27,0,0,1-4-7.6,111.27,111.27,0,1,1,209.1-68.6,4.09,4.09,0,0,1,.3,2.2,111.09,111.09,0,0,1,1.2,16.4C248.1,198.2,198.2,248.2,136.9,248.2Z"/><g class="cls-2"><path class="cls-3" d="M70.09,137.45,100,167.37a3.57,3.57,0,0,1,0,5.07l-9.35,9.35a3.57,3.57,0,0,1-5.07,0L43.78,140a3.57,3.57,0,0,1,0-5.07l41.8-41.8a3.57,3.57,0,0,1,5.07,0l9.35,9.35a3.57,3.57,0,0,1,0,5.07Z"/></g><g class="cls-2"><path class="cls-3" d="M202.53,137.39l-29.78-29.78a3.55,3.55,0,0,1,0-5l9.31-9.31a3.56,3.56,0,0,1,5.05,0l41.6,41.61a3.53,3.53,0,0,1,0,5l-41.6,41.61a3.56,3.56,0,0,1-5.05,0l-9.31-9.31a3.55,3.55,0,0,1,0-5Z"/></g><polygon class="cls-3" points="133.4 182.2 112.2 182.5 140.6 92.6 161.8 92.1 133.4 182.2"/></svg>