<?xml version="1.0" encoding="utf-8"?>
<!-- Generator: Adobe Illustrator 23.0.3, SVG Export Plug-In . SVG Version: 6.00 Build 0)  -->
<svg version="1.1" id="Layer_1" xmlns="http://www.w3.org/2000/svg" xmlns:xlink="http://www.w3.org/1999/xlink" x="0px" y="0px"
	 viewBox="0 0 275 275.5" style="enable-background:new 0 0 275 275.5;" xml:space="preserve">
<style type="text/css">
	.st0{fill:#38BCDB;}
</style>
<path class="st0" d="M197.7,129.5h-51.6V69.2c0-4.7-3.8-8.6-8.6-8.6s-8.6,3.8-8.6,8.6V138c0,4.7,3.8,8.6,8.6,8.6h60.2
	c4.7,0,8.6-3.8,8.6-8.6C206.2,133.3,202.4,129.5,197.7,129.5z"/>
<path class="st0" d="M137.5,0.5C61.6,0.5,0,62.1,0,138s61.6,137.5,137.5,137.5S275,213.9,275,138S213.4,0.5,137.5,0.5z M137.5,249.8
	c-61.6,0-111.8-50.1-111.8-111.8c0-61.6,50.1-111.8,111.8-111.8S249.3,76.3,249.3,138C249.3,199.6,199.1,249.8,137.5,249.8z"/>
</svg>
